# xmcd CD database file
#
# Track frame offsets:
#	150
#	20892
#	70010
#	122772
#	154800
#	175000
#	207377
#	233177
#
# Disc length: 3708 seconds
#
# Revision: 0
# Processed by: cddbd v1.5.1PL2 Copyright (c) Steve Scherf et al.
# Submitted via: CDex 1.50
#
DISCID=6a0e7a08
DTITLE=Lars Danielsson - Far North
DYEAR=1994
DGENRE=Jazz
TTITLE0=Far North
TTITLE1=Eden
TTITLE2=Fuschia
TTITLE3=Climbing
TTITLE4=Einstein
TTITLE5=Ormen
TTITLE6=Twelve Tones Old
TTITLE7=Pacem
EXTD=YEAR: 1994
EXTT0=
EXTT1=
EXTT2=
EXTT3=
EXTT4=
EXTT5=
EXTT6=
EXTT7=
PLAYORDER=
